<?xml version="1.0" encoding="utf-8"?>
<!-- Generator: Adobe Illustrator 25.2.3, SVG Export Plug-In . SVG Version: 6.00 Build 0)  -->
<svg version="1.1" id="Layer_1" xmlns="http://www.w3.org/2000/svg" xmlns:xlink="http://www.w3.org/1999/xlink" x="0px" y="0px"
	 viewBox="0 0 612 792" style="enable-background:new 0 0 612 792;" xml:space="preserve">
<style type="text/css">
	.st0{fill:none;}
	.st1{font-family:'KlavikaBasic-Medium';}
	.st2{font-size:90.4877px;}
	.st3{letter-spacing:-3;}
	.st4{letter-spacing:-1;}
	.st5{letter-spacing:-2;}
	.st6{letter-spacing:-4;}
	.st7{fill:#5D070F;}
	.st8{fill:#FFFFFF;}
	.st9{fill:#A39C65;}
	.st10{fill:#E7B513;}
</style>
<g>
	<rect x="141.8" y="36" class="st0" width="407.2" height="84.8"/>
	<text transform="matrix(1 0 0 1 141.8057 99.6123)"><tspan x="0" y="0" class="st1 st2 st3">sp</tspan><tspan x="80.9" y="0" class="st1 st2 st4">ri</tspan><tspan x="132" y="0" class="st1 st2 st4">ng</tspan><tspan x="222.1" y="0" class="st1 st2 st5">b</tspan><tspan x="267.7" y="0" class="st1 st2 st6">o</tspan><tspan x="310.2" y="0" class="st1 st2 st5">k</tspan></text>
	<g>
		<rect x="73" y="36" class="st7" width="62.2" height="62.2"/>
		<g>
			<rect x="78.2" y="41.2" class="st7" width="51.8" height="51.8"/>
			<rect x="80.8" y="69.7" class="st8" width="20.7" height="20.7"/>
			<rect x="104.1" y="54.1" class="st8" width="13" height="13"/>
			<rect x="119.6" y="43.7" class="st8" width="7.8" height="7.8"/>
		</g>
	</g>
</g>
<g>
	<rect x="140.8" y="360" class="st0" width="407.2" height="84.8"/>
	<text transform="matrix(1 0 0 1 140.8087 423.6123)"><tspan x="0" y="0" class="st8 st1 st2 st3">sp</tspan><tspan x="80.9" y="0" class="st8 st1 st2 st4">ri</tspan><tspan x="132" y="0" class="st8 st1 st2 st4">ng</tspan><tspan x="222.1" y="0" class="st8 st1 st2 st5">b</tspan><tspan x="267.7" y="0" class="st8 st1 st2 st6">o</tspan><tspan x="310.2" y="0" class="st8 st1 st2 st5">k</tspan></text>
	<g>
		<rect x="72" y="360" class="st7" width="62.2" height="62.2"/>
		<g>
			<rect x="77.2" y="365.2" class="st7" width="51.8" height="51.8"/>
			<rect x="79.8" y="393.7" class="st8" width="20.7" height="20.7"/>
			<rect x="103.1" y="378.1" class="st8" width="13" height="13"/>
			<rect x="118.6" y="367.7" class="st8" width="7.8" height="7.8"/>
		</g>
	</g>
</g>
<rect x="140.8" y="468" class="st0" width="407.2" height="84.8"/>
<text transform="matrix(1 0 0 1 140.8087 531.6123)"><tspan x="0" y="0" class="st8 st1 st2 st3">sp</tspan><tspan x="80.9" y="0" class="st8 st1 st2 st4">ri</tspan><tspan x="132" y="0" class="st8 st1 st2 st4">ng</tspan><tspan x="222.1" y="0" class="st8 st1 st2 st5">b</tspan><tspan x="267.7" y="0" class="st8 st1 st2 st6">o</tspan><tspan x="310.2" y="0" class="st8 st1 st2 st5">k</tspan></text>
<g>
	<rect x="140.8" y="144" class="st0" width="407.2" height="84.8"/>
	<text transform="matrix(1 0 0 1 140.8087 207.6123)"><tspan x="0" y="0" class="st1 st2 st3">sp</tspan><tspan x="80.9" y="0" class="st1 st2 st4">ri</tspan><tspan x="132" y="0" class="st1 st2 st4">ng</tspan><tspan x="222.1" y="0" class="st1 st2 st5">b</tspan><tspan x="267.7" y="0" class="st1 st2 st6">o</tspan><tspan x="310.2" y="0" class="st1 st2 st5">k</tspan></text>
	<g>
		<rect x="72" y="144" class="st9" width="63" height="63"/>
		<rect x="77.2" y="149.2" class="st9" width="52.5" height="52.5"/>
		<rect x="79.9" y="178.1" class="st8" width="21" height="21"/>
		<rect x="103.5" y="162.3" class="st8" width="13.1" height="13.1"/>
		<rect x="119.2" y="151.8" class="st8" width="7.9" height="7.9"/>
	</g>
</g>
<g>
	<rect x="140.8" y="252" class="st0" width="407.2" height="84.8"/>
	<text transform="matrix(1 0 0 1 140.8087 315.6123)"><tspan x="0" y="0" class="st1 st2 st3">sp</tspan><tspan x="80.9" y="0" class="st1 st2 st4">ri</tspan><tspan x="132" y="0" class="st1 st2 st4">ng</tspan><tspan x="222.1" y="0" class="st1 st2 st5">b</tspan><tspan x="267.7" y="0" class="st1 st2 st6">o</tspan><tspan x="310.2" y="0" class="st1 st2 st5">k</tspan></text>
	<g>
		<rect x="121.9" y="283.5" class="st0" width="0.9" height="0"/>
		<rect x="72" y="252" class="st10" width="63" height="63"/>
		<rect x="77.2" y="257.2" class="st10" width="52.5" height="52.5"/>
		<rect x="79.9" y="286.1" class="st8" width="21" height="21"/>
		<rect x="103.5" y="270.3" class="st8" width="13.1" height="13.1"/>
		<rect x="119.2" y="259.8" class="st8" width="7.9" height="7.9"/>
	</g>
</g>
<g>
	<rect x="140.8" y="576" class="st0" width="407.2" height="84.8"/>
	<text transform="matrix(1 0 0 1 140.8087 639.6123)"><tspan x="0" y="0" class="st8 st1 st2 st3">sp</tspan><tspan x="80.9" y="0" class="st8 st1 st2 st4">ri</tspan><tspan x="132" y="0" class="st8 st1 st2 st4">ng</tspan><tspan x="222.1" y="0" class="st8 st1 st2 st5">b</tspan><tspan x="267.7" y="0" class="st8 st1 st2 st6">o</tspan><tspan x="310.2" y="0" class="st8 st1 st2 st5">k</tspan></text>
	<g>
		<rect x="121.9" y="607.5" class="st0" width="0.9" height="0"/>
		<rect x="72" y="576" class="st10" width="63" height="63"/>
		<rect x="77.2" y="581.2" class="st10" width="52.5" height="52.5"/>
		<rect x="79.9" y="610.1" class="st8" width="21" height="21"/>
		<rect x="103.5" y="594.3" class="st8" width="13.1" height="13.1"/>
		<rect x="119.2" y="583.8" class="st8" width="7.9" height="7.9"/>
	</g>
</g>
<rect x="555.8" y="423" class="st0" width="2.2" height="3.9"/>
<rect x="558" y="594" class="st0" width="2.9" height="2.9"/>
<g>
	<rect x="72" y="468" class="st9" width="63" height="63"/>
	<rect x="77.2" y="473.2" class="st9" width="52.5" height="52.5"/>
	<rect x="79.9" y="502.1" class="st8" width="21" height="21"/>
	<rect x="103.5" y="486.3" class="st8" width="13.1" height="13.1"/>
	<rect x="119.2" y="475.8" class="st8" width="7.9" height="7.9"/>
</g>
</svg>
